<svg height="512" viewBox="0 0 58 57" width="512" xmlns="http://www.w3.org/2000/svg"><g id="Page-1" fill="none" fill-rule="evenodd"><g id="082---Image-Editing" fill-rule="nonzero"><g id="Layer_11" transform="translate(0 6)"><path id="Shape" d="m40 47-11 1-11-1c3-2 3-6 3-6l8-1 8 1s0 4 3 6z" fill="#3f5c6c"/><path id="Shape" d="m43 49c-.0032948 1.1032019-.8967981 1.9967052-2 2h-24c-1.1011688-.0081672-1.9918328-.8988312-2-2 .0032948-1.1032019.8967981-1.9967052 2-2h24c1.1011688.0081672 1.9918328.8988312 2 2z" fill="#547580"/><path id="Shape" d="m58 35v4c-.0032948 1.1032019-.8967981 1.9967052-2 2h-54c-1.10320187-.0032948-1.9967052-.8967981-2-2v-4z" fill="#547580"/><path id="Shape" d="m58 2v34h-58v-34c.0032948-1.10320187.89679813-1.9967052 2-2h54c1.1032019.0032948 1.9967052.89679813 2 2z" fill="#90bae1"/><path id="Shape" d="m56.38.04c-9.39.32-56.38 3.56-56.38 35.96v-34c.0032948-1.10320187.89679813-1.9967052 2-2h54c.127818-.00207853.2554163.01135287.38.04z" fill="#b0d3f0"/></g><g id="Icons" transform="translate(8)"><path id="Shape" d="m0 34.33v-32.33c.0032948-1.10320187.89679813-1.9967052 2-2h38c1.1032019.0032948 1.9967052.89679813 2 2v28.33z" fill="#f3d55b"/><path id="Shape" d="m42 30.33v6.67c-.0032948 1.1032019-.8967981 1.9967052-2 2h-38c-1.10320187-.0032948-1.9967052-.8967981-2-2v-2.67l12.22-16.29c.1863181-.2465056.4761292-.3930327.785102-.3969437.3089727-.0039111.6023999.1352332.794898.3769437l4.89 6.22.96 1.23 1.2-1.6 7.35-9.8c.1871181-.2544703.4841388-.4047407.8-.4047407s.6128819.1502704.8.4047407l4.87 6.49 3.61 4.81z" fill="#7d6599"/><path id="Shape" d="m19.65 25.47 1.2-1.6 5.9 7.51c.3424165.4335435.2685435 1.0625834-.165 1.405-.4335435.3424165-1.0625835.2685435-1.405-.165z" fill="#5d4c72"/><circle id="Oval" cx="9" cy="9" fill="#f5efca" r="4"/><path id="Shape" d="m39.999 23.94-13.03 9.29-3.48-4.88 13.02-9.29z" fill="#e64c3c"/><path id="Shape" d="m26.969 33.23-5.68 1.52c-.4016969.1069376-.8276594-.0457815-1.0699031-.3835892s-.2502449-.7902491-.0200969-1.1364108l3.29-4.88z" fill="#f9c795"/><path id="Shape" d="m43.249 21.62-3.25 2.32-3.49-4.88 3.26-2.33z" fill="#bdc3c7"/><path id="Shape" d="m45.169 20.25-1.92 1.37-3.48-4.89 1.91-1.36c.4322481-.3078157.9691066-.4312338 1.4923832-.3430833s.9900713.3806429 1.2976168.8130833l1.16 1.62c.6384785.8986086.4331585 2.1439193-.46 2.79z" fill="#ff5364"/><path id="Shape" d="m23.839 34.07-2.55.68c-.4016969.1069376-.8276594-.0457815-1.0699031-.3835892s-.2502449-.7902491-.0200969-1.1364108l1.5-2.22z" fill="#464f5d"/></g></g></g></svg>