<?xml version="1.0" standalone="no"?>
<!DOCTYPE svg PUBLIC "-//W3C//DTD SVG 20010904//EN"
 "http://www.w3.org/TR/2001/REC-SVG-20010904/DTD/svg10.dtd">
<svg version="1.0" xmlns="http://www.w3.org/2000/svg"
 width="700.000000pt" height="700.000000pt" viewBox="0 0 700.000000 700.000000"
 preserveAspectRatio="xMidYMid meet">
<metadata>
Created by potrace 1.14, written by Peter Selinger 2001-2017
</metadata>
<g transform="translate(0.000000,700.000000) scale(0.100000,-0.100000)"
fill="#000000" stroke="none">
<path d="M1127 6621 c-56 -19 -110 -68 -139 -125 -20 -38 -21 -57 -22 -301 -1
-143 -4 -264 -8 -270 -3 -6 -55 -10 -125 -9 -157 1 -234 -11 -318 -51 -112
-53 -203 -153 -249 -273 l-21 -57 0 -1982 0 -1983 -76 0 c-84 0 -131 -21 -156
-70 -19 -37 -16 -478 4 -568 60 -271 265 -477 548 -554 41 -11 546 -13 2925
-13 1581 0 2893 4 2915 8 194 36 390 169 484 328 92 154 109 236 110 534 1
264 -1 273 -58 312 -28 19 -48 23 -107 23 -70 0 -74 1 -74 23 -1 12 -1 891 -1
1954 -1 2122 3 1995 -61 2116 -42 78 -127 160 -206 197 -34 17 -70 31 -80 33
-9 1 -23 6 -31 11 -8 5 -84 10 -170 12 -86 1 -161 3 -166 3 -7 1 -11 92 -11
264 -1 245 -2 265 -22 310 -23 53 -70 100 -122 125 -32 15 -223 16 -2376 18
-2137 1 -2345 0 -2387 -15z"/>
</g>
</svg>
